<svg xmlns="http://www.w3.org/2000/svg" viewBox="0 0 29.05 29.05"><defs><style>.cls-1{fill:#383838}</style></defs><g id="Capa_2" data-name="Capa 2"><g id="Capa_1-2" data-name="Capa 1"><path class="cls-1" d="M14.52 5A9.48 9.48 0 1024 14.52 9.49 9.49 0 0014.52 5zm7 9.48a7 7 0 11-7-7 7 7 0 016.98 7.04zm2-10.68a1.78 1.78 0 101.78 1.78 1.78 1.78 0 00-1.78-1.78z"/><path class="cls-1" d="M22 0H7a7 7 0 00-7 7v15a7 7 0 007 7h15a7 7 0 007-7V7a7 7 0 00-7-7zm4.75 7v15A4.75 4.75 0 0122 26.78H7A4.75 4.75 0 012.28 22V7A4.75 4.75 0 017 2.28h15A4.75 4.75 0 0126.78 7z"/></g></g></svg>