<svg xmlns="http://www.w3.org/2000/svg" viewBox="0 0 27.2 21.76"><g data-name="Capa 2"><path d="M27.2 2.58a12 12 0 01-3.2.87A5.48 5.48 0 0026.46.4a11.53 11.53 0 01-3.55 1.34 5.61 5.61 0 00-9.67 3.75 5.63 5.63 0 00.17 1.25A15.83 15.83 0 011.9 1a5.58 5.58 0 00-.76 2.76 5.48 5.48 0 002.47 4.57 5.27 5.27 0 01-2.52-.68v.08a5.21 5.21 0 00.38 2 5.58 5.58 0 004.11 3.37 5.62 5.62 0 01-1.48.2 5.27 5.27 0 01-1-.11A5.64 5.64 0 008.26 17a11.27 11.27 0 01-6.92 2.35A12 12 0 010 19.29a16.1 16.1 0 008.55 2.47A15.54 15.54 0 0024.06 9.45a15.11 15.11 0 00.36-3.31v-.71a11.58 11.58 0 002.78-2.85z" fill="#383838" fill-rule="evenodd" data-name="Capa 1"/></g></svg>