<svg xmlns="http://www.w3.org/2000/svg" viewBox="0 0 29.82 29.78"><g data-name="Capa 2"><path d="M29.8 14.14a14.62 14.62 0 00-29.22-.27 4.29 4.29 0 000 .63A14.5 14.5 0 002.65 22L0 29.78l8.11-2.56A14.78 14.78 0 0015.18 29a14.57 14.57 0 0014.64-14.5v-.36zm-7.92 3.3c-.37-.18-2.11-1.05-2.44-1.18s-.58-.18-.82.19a15.83 15.83 0 01-1.13 1.38c-.21.25-.42.27-.76.11a9.13 9.13 0 01-2.9-1.78 10.4 10.4 0 01-2-2.44c-.19-.39 0-.55.15-.76a4.86 4.86 0 00.55-.61 1 1 0 00.12-.16 3.42 3.42 0 00.23-.42.57.57 0 000-.62c-.07-.18-.79-2-1.1-2.65s-.6-.6-.79-.6h-.7a1.23 1.23 0 00-.95.45A3.84 3.84 0 008 11.3a3.68 3.68 0 00.21 1.19A8.11 8.11 0 009.5 15c.18.24 2.48 3.94 6.13 5.36s3.67.94 4.31.89a3.57 3.57 0 002.43-1.7 2.85 2.85 0 00.19-1.69 1.86 1.86 0 00-.68-.39zm-6.7 9.27a12.25 12.25 0 01-6.76-2L3.7 26.2l1.52-4.54a12.12 12.12 0 01-2.34-7.16 9.23 9.23 0 01.06-1.18 12.31 12.31 0 0124.5.22v1a12.27 12.27 0 01-12.26 12.17z" fill="#383838" fill-rule="evenodd" data-name="Capa 1"/></g></svg>