<svg xmlns="http://www.w3.org/2000/svg" viewBox="0 0 203.49 180"><defs><style>.cls-1{fill:#fff;}</style></defs><g id="Capa_2" data-name="Capa 2"><g id="Layer_1" data-name="Layer 1"><path class="cls-1" d="M195.06,35.85H88.57a8.44,8.44,0,1,0,0,16.87h96.26l-11.48,59h-94L53.53,6.43A8.44,8.44,0,0,0,45.34,0H8.44a8.44,8.44,0,1,0,0,16.87H38.72L64.56,122.21a8.44,8.44,0,0,0,8.19,6.42H180.3a8.43,8.43,0,0,0,8.28-6.82l14.76-75.92a8.43,8.43,0,0,0-8.28-10Z"/><circle class="cls-1" cx="94.05" cy="160.81" r="19.19" transform="translate(-87.12 117.39) rotate(-46.2)"/><circle class="cls-1" cx="159" cy="160.81" r="19.19" transform="translate(-67.13 163.76) rotate(-46.07)"/></g></g></svg>